<svg xmlns="http://www.w3.org/2000/svg" xmlns:xlink="http://www.w3.org/1999/xlink" xml:space="preserve" version="1.1" style="shape-rendering:geometricPrecision;text-rendering:geometricPrecision;image-rendering:optimizeQuality;" viewBox="0 0 60000 75000" x="0px" y="0px" fill-rule="evenodd" clip-rule="evenodd"><defs><style type="text/css">
   
    .fil0 {fill:black;fill-rule:nonzero}
   
  </style></defs><g><path class="fil0" d="M52479 33089l-1112 1445 587 2443c24,103 -16,206 -94,266l-1909 1625 64 2512c2,101 -53,190 -137,235l0 0 -2218 1201 -463 2469c-19,101 -94,177 -186,203l-2417 715 -969 2320c-39,94 -126,153 -220,160l0 0 -2519 200 -1433 2068c-60,86 -162,125 -259,109l-2495 -324 -1835 1728c-76,72 -184,89 -275,52l-2373 -833 -2156 1311c-87,53 -194,49 -275,-2l-2152 -1309 -2384 837c-95,33 -196,8 -264,-56l0 0 -1835 -1728 -2506 326c-100,13 -193,-33 -247,-110l0 0 -1433 -2068 -2519 -200c-105,-8 -191,-78 -225,-171l-964 -2308 -2421 -716c-99,-29 -168,-112 -184,-207l-462 -2464 -2218 -1201c-94,-51 -145,-151 -136,-252l63 -2496 -1919 -1633c-77,-65 -106,-166 -85,-258l0 0 152 -633c-1978,-473 -3973,-1158 -5992,-2110 -56,-27 -99,-71 -124,-123 -115,-80 -146,-238 -69,-357l2397 -3662 -2755 -5689c-100,-72 -137,-207 -83,-322 61,-130 217,-186 347,-125 2094,987 4165,1682 6220,2148l493 -640 -587 -2443c-24,-103 16,-206 94,-266l1909 -1625 -64 -2512c-2,-101 53,-190 137,-235l0 0 2218 -1201 463 -2469c19,-101 94,-177 186,-203l2417 -715 969 -2320c39,-94 126,-153 220,-160l0 0 2519 -200 1433 -2068c60,-86 162,-125 259,-109l2495 324 1835 -1728c76,-72 184,-89 275,-52l2373 833 2156 -1311c87,-53 194,-49 275,2l2152 1309 2384 -837c95,-33 196,-8 264,56l0 0 1835 1728 2506 -326c100,-13 193,33 247,110l0 0 1433 2068 2519 200c105,8 191,78 225,171l964 2308 2421 716c99,29 168,112 184,207l462 2464 2218 1201c94,51 145,151 136,252l-63 2496 1903 1619c1952,165 3940,469 5969,951 60,-9 124,4 179,39 121,78 155,240 77,360l-2398 3703 2743 5725c130,40 209,175 177,309 -33,140 -174,226 -313,193 -1971,-472 -3905,-774 -5806,-942zm-43928 3372l-116 482 1881 1601c64,49 105,127 103,213l-63 2476 2187 1184 0 0c67,36 118,101 133,182l456 2435 2378 703c77,20 144,74 177,153l955 2287 2483 197 0 1c75,6 148,45 194,112l1413 2040 2457 -319c79,-15 163,7 226,66l1809 1704 2341 -822c73,-28 158,-24 230,20l2126 1293 2126 -1293 0 0c64,-39 145,-50 221,-24l2350 825 1809 -1704 0 0c55,-51 131,-79 211,-69l2472 321 1403 -2026c42,-70 116,-120 204,-127l2483 -197 955 -2287 0 0c29,-70 89,-127 167,-150l2387 -706 455 -2427c12,-78 59,-149 134,-189l2187 -1184 -63 -2476 0 0c-2,-76 29,-151 91,-204l1892 -1610 -576 -2397c-23,-77 -9,-164 44,-232l981 -1275c-1042,-76 -2074,-113 -3098,-117 -703,4570 -3030,8605 -6372,11497 -3343,2893 -7701,4642 -12467,4642 -3985,0 -7685,-1223 -10745,-3315 -3111,-2127 -5559,-5152 -6972,-8702 -1214,-123 -2431,-313 -3655,-584zm-6119 -2626c9885,4593 19242,2733 28999,792 8291,-1649 16869,-3355 26343,-1248l-2690 -5614 2346 -3621c-9473,-2178 -18086,-465 -26407,1190 -9663,1922 -18937,3765 -28774,-585l2607 5383 -2424 3702zm45802 -912c-299,2 -597,8 -895,16 -699,4172 -2860,7848 -5939,10483 -3087,2642 -7096,4238 -11477,4238 -3582,0 -6916,-1067 -9701,-2901 -2812,-1852 -5063,-4486 -6444,-7591 -329,-18 -659,-41 -988,-68 1388,3346 3728,6198 6682,8217 2975,2034 6574,3223 10451,3223 4637,0 8876,-1701 12126,-4514 3231,-2796 5486,-6690 6185,-11102zm-1161 23c-5371,170 -10510,1192 -15543,2193 -5893,1172 -11640,2315 -17459,2042 1365,3008 3561,5559 6294,7359 2743,1806 6027,2857 9558,2857 4317,0 8266,-1572 11307,-4174 3021,-2586 5145,-6188 5843,-10277zm-38523 -6719c871,180 1739,319 2605,423 790,-4459 3131,-8383 6445,-11194 3323,-2819 7625,-4519 12324,-4519 3916,0 7558,1182 10587,3209 3081,2061 5527,4997 6984,8452 1148,-14 2308,12 3480,87l-1445 -1230c-64,-49 -105,-127 -103,-213l63 -2476 -2187 -1184 0 0c-67,-36 -118,-101 -133,-182l-456 -2435 -2378 -703c-77,-20 -144,-74 -177,-153l-955 -2287 -2483 -197 0 -1c-75,-6 -148,-45 -194,-112l-1413 -2040 -2457 319c-79,15 -163,-7 -226,-66l-1809 -1704 -2341 822c-73,28 -158,24 -230,-20l-2126 -1293 -2126 1293 0 0c-64,39 -145,50 -221,24l-2350 -825 -1809 1704 0 0c-55,51 -131,79 -211,69l-2472 -321 -1403 2026c-42,70 -116,120 -204,127l-2483 197 -955 2287 0 0c-29,70 -89,127 -167,150l-2387 706 -455 2427c-12,78 -59,149 -134,189l-2187 1184 63 2476 0 0c2,76 -29,151 -91,204l-1892 1610 576 2397c23,77 9,164 -44,232l-418 542zm3124 481c294,30 588,57 881,79 754,-4104 2927,-7711 5990,-10295 3073,-2592 7043,-4154 11378,-4154 3545,0 6847,1045 9614,2845 2793,1816 5041,4402 6443,7456 316,-13 634,-24 952,-32 -1426,-3277 -3772,-6063 -6712,-8030 -2945,-1970 -6486,-3119 -10297,-3119 -4571,0 -8755,1654 -11987,4395 -3215,2727 -5488,6531 -6262,10854zm1143 99c6030,416 11989,-769 18106,-1985 4791,-953 9678,-1925 14778,-2169 -1384,-2967 -3581,-5479 -6304,-7250 -2725,-1772 -5978,-2802 -9473,-2802 -4271,0 -8182,1538 -11209,4091 -3012,2540 -5150,6084 -5897,10115z"/></g><text x="0" y="60015" fill="#000000" font-size="5px" font-weight="bold" font-family="'Helvetica Neue', Helvetica, Arial-Unicode, Arial, Sans-serif">Created by Olena Panasovska</text><text x="0" y="60020" fill="#000000" font-size="5px" font-weight="bold" font-family="'Helvetica Neue', Helvetica, Arial-Unicode, Arial, Sans-serif">from the Noun Project</text></svg>